<svg xmlns="http://www.w3.org/2000/svg" viewBox="0 0 100 100">
  <rect width="100" height="100" rx="22" fill="#f59e0b"/>
  <g fill="white">
    <path d="M 46 36 C 41 26 34 12 40 5 C 45 0 55 0 60 5 C 66 12 59 26 54 36 C 52 39 48 39 46 36 Z"/>
    <path transform="rotate(45 50 50)" d="M 46 36 C 41 26 34 12 40 5 C 45 0 55 0 60 5 C 66 12 59 26 54 36 C 52 39 48 39 46 36 Z"/>
    <path transform="rotate(90 50 50)" d="M 46 36 C 41 26 34 12 40 5 C 45 0 55 0 60 5 C 66 12 59 26 54 36 C 52 39 48 39 46 36 Z"/>
    <path transform="rotate(135 50 50)" d="M 46 36 C 41 26 34 12 40 5 C 45 0 55 0 60 5 C 66 12 59 26 54 36 C 52 39 48 39 46 36 Z"/>
    <path transform="rotate(180 50 50)" d="M 46 36 C 41 26 34 12 40 5 C 45 0 55 0 60 5 C 66 12 59 26 54 36 C 52 39 48 39 46 36 Z"/>
    <path transform="rotate(225 50 50)" d="M 46 36 C 41 26 34 12 40 5 C 45 0 55 0 60 5 C 66 12 59 26 54 36 C 52 39 48 39 46 36 Z"/>
    <path transform="rotate(270 50 50)" d="M 46 36 C 41 26 34 12 40 5 C 45 0 55 0 60 5 C 66 12 59 26 54 36 C 52 39 48 39 46 36 Z"/>
    <path transform="rotate(315 50 50)" d="M 46 36 C 41 26 34 12 40 5 C 45 0 55 0 60 5 C 66 12 59 26 54 36 C 52 39 48 39 46 36 Z"/>
  </g>
</svg>
